<mxfile host="app.diagrams.net" modified="2024-12-16T21:52:51.037Z" agent="Mozilla/5.0 (Windows NT 10.0; Win64; x64) AppleWebKit/537.36 (KHTML, like Gecko) Chrome/131.0.0.0 Safari/537.36" etag="U4HZGCAU65onFumijRtj" version="24.6.3" type="google">
  <diagram id="shopping-cart-classes" name="Shopping Cart Classes">
    <mxGraphModel dx="2716" dy="1179" grid="1" gridSize="10" guides="1" tooltips="1" connect="1" arrows="1" fold="1" page="1" pageScale="1" pageWidth="850" pageHeight="1100" math="0" shadow="0">
      <root>
        <mxCell id="0" />
        <mxCell id="1" parent="0" />
        <mxCell id="mLEqLvMPQNFOAO5eKtlC-22" value="REST API" style="swimlane;whiteSpace=wrap;html=1;" vertex="1" parent="1">
          <mxGeometry x="-490" y="80" width="610" height="400" as="geometry" />
        </mxCell>
        <mxCell id="6" value="CheckoutRequest" style="swimlane;fontStyle=1;align=center;verticalAlign=top;childLayout=stackLayout;horizontal=1;startSize=26;horizontalStack=0;resizeParent=1;resizeParentMax=0;resizeLast=0;collapsible=1;marginBottom=0;" parent="mLEqLvMPQNFOAO5eKtlC-22" vertex="1">
          <mxGeometry x="60" y="60" width="200" height="80" as="geometry" />
        </mxCell>
        <mxCell id="7" value="+ items: List&lt;CartItem&gt;" style="text;strokeColor=none;fillColor=none;align=left;verticalAlign=top;spacingLeft=4;spacingRight=4;overflow=hidden;rotatable=0;points=[[0,0.5],[1,0.5]];portConstraint=eastwest;" parent="6" vertex="1">
          <mxGeometry y="26" width="200" height="54" as="geometry" />
        </mxCell>
        <mxCell id="8" value="CheckoutResponse" style="swimlane;fontStyle=1;align=center;verticalAlign=top;childLayout=stackLayout;horizontal=1;startSize=26;horizontalStack=0;resizeParent=1;resizeParentMax=0;resizeLast=0;collapsible=1;marginBottom=0;" parent="mLEqLvMPQNFOAO5eKtlC-22" vertex="1">
          <mxGeometry x="360" y="60" width="240" height="80" as="geometry" />
        </mxCell>
        <mxCell id="9" value="+ totalPrice: double&#xa;+ itemPrices: List&lt;ItemPrice&gt;&#xa;+ bundleDiscountApplied: double" style="text;strokeColor=none;fillColor=none;align=left;verticalAlign=top;spacingLeft=4;spacingRight=4;overflow=hidden;rotatable=0;points=[[0,0.5],[1,0.5]];portConstraint=eastwest;" parent="8" vertex="1">
          <mxGeometry y="26" width="240" height="54" as="geometry" />
        </mxCell>
        <mxCell id="4" value="CartItem" style="swimlane;fontStyle=1;align=center;verticalAlign=top;childLayout=stackLayout;horizontal=1;startSize=26;horizontalStack=0;resizeParent=1;resizeParentMax=0;resizeLast=0;collapsible=1;marginBottom=0;" parent="mLEqLvMPQNFOAO5eKtlC-22" vertex="1">
          <mxGeometry x="70" y="250" width="180" height="110" as="geometry" />
        </mxCell>
        <mxCell id="5" value="+ itemId: String&#xa;+ quantity: int" style="text;strokeColor=none;fillColor=none;align=left;verticalAlign=top;spacingLeft=4;spacingRight=4;overflow=hidden;rotatable=0;points=[[0,0.5],[1,0.5]];portConstraint=eastwest;" parent="4" vertex="1">
          <mxGeometry y="26" width="180" height="84" as="geometry" />
        </mxCell>
        <mxCell id="15" value="" style="endArrow=diamondThin;endFill=1;endSize=24;html=1;exitX=0.5;exitY=0;exitDx=0;exitDy=0;entryX=0.5;entryY=1;entryDx=0;entryDy=0;" parent="mLEqLvMPQNFOAO5eKtlC-22" source="4" target="6" edge="1">
          <mxGeometry width="160" relative="1" as="geometry" />
        </mxCell>
        <mxCell id="16" value="contains" style="edgeLabel;html=1;align=center;verticalAlign=middle;resizable=0;points=[];" parent="15" vertex="1" connectable="0">
          <mxGeometry x="-0.2" y="1" relative="1" as="geometry">
            <mxPoint as="offset" />
          </mxGeometry>
        </mxCell>
        <mxCell id="10" value="ItemPrice" style="swimlane;fontStyle=1;align=center;verticalAlign=top;childLayout=stackLayout;horizontal=1;startSize=26;horizontalStack=0;resizeParent=1;resizeParentMax=0;resizeLast=0;collapsible=1;marginBottom=0;" parent="mLEqLvMPQNFOAO5eKtlC-22" vertex="1">
          <mxGeometry x="390" y="250" width="180" height="110" as="geometry" />
        </mxCell>
        <mxCell id="11" value="+ itemId: String&#xa;+ quantity: int&#xa;+ price: double" style="text;strokeColor=none;fillColor=none;align=left;verticalAlign=top;spacingLeft=4;spacingRight=4;overflow=hidden;rotatable=0;points=[[0,0.5],[1,0.5]];portConstraint=eastwest;" parent="10" vertex="1">
          <mxGeometry y="26" width="180" height="84" as="geometry" />
        </mxCell>
        <mxCell id="17" value="" style="endArrow=diamondThin;endFill=1;endSize=24;html=1;exitX=0.5;exitY=0;exitDx=0;exitDy=0;entryX=0.5;entryY=1;entryDx=0;entryDy=0;" parent="mLEqLvMPQNFOAO5eKtlC-22" source="10" target="8" edge="1">
          <mxGeometry width="160" relative="1" as="geometry" />
        </mxCell>
        <mxCell id="18" value="contains" style="edgeLabel;html=1;align=center;verticalAlign=middle;resizable=0;points=[];" parent="17" vertex="1" connectable="0">
          <mxGeometry x="-0.2" y="1" relative="1" as="geometry">
            <mxPoint as="offset" />
          </mxGeometry>
        </mxCell>
        <mxCell id="mLEqLvMPQNFOAO5eKtlC-24" value="Service" style="swimlane;whiteSpace=wrap;html=1;" vertex="1" parent="1">
          <mxGeometry x="210" y="30" width="630" height="450" as="geometry" />
        </mxCell>
        <mxCell id="2" value="Item" style="swimlane;fontStyle=1;align=center;verticalAlign=top;childLayout=stackLayout;horizontal=1;startSize=26;horizontalStack=0;resizeParent=1;resizeParentMax=0;resizeLast=0;collapsible=1;marginBottom=0;" parent="mLEqLvMPQNFOAO5eKtlC-24" vertex="1">
          <mxGeometry x="290" y="50" width="200" height="130" as="geometry" />
        </mxCell>
        <mxCell id="3" value="+ id: String&#xa;+ normalPrice: double&#xa;+ specialPrice: double&#xa;+ requiredQuantity: int" style="text;strokeColor=none;fillColor=none;align=left;verticalAlign=top;spacingLeft=4;spacingRight=4;overflow=hidden;rotatable=0;points=[[0,0.5],[1,0.5]];portConstraint=eastwest;" parent="2" vertex="1">
          <mxGeometry y="26" width="200" height="104" as="geometry" />
        </mxCell>
        <mxCell id="14" value="CheckoutService" style="swimlane;fontStyle=1;align=center;verticalAlign=top;childLayout=stackLayout;horizontal=1;startSize=26;horizontalStack=0;resizeParent=1;resizeParentMax=0;resizeLast=0;collapsible=1;marginBottom=0;" parent="mLEqLvMPQNFOAO5eKtlC-24" vertex="1">
          <mxGeometry x="290" y="310" width="200" height="50" as="geometry" />
        </mxCell>
        <mxCell id="21" value="" style="endArrow=open;endSize=12;dashed=1;html=1;exitX=0.5;exitY=0;exitDx=0;exitDy=0;entryX=0.5;entryY=1;entryDx=0;entryDy=0;" parent="mLEqLvMPQNFOAO5eKtlC-24" source="14" target="2" edge="1">
          <mxGeometry width="160" relative="1" as="geometry">
            <Array as="points" />
          </mxGeometry>
        </mxCell>
        <mxCell id="22" value="manages" style="edgeLabel;html=1;align=center;verticalAlign=middle;resizable=0;points=[];" parent="21" vertex="1" connectable="0">
          <mxGeometry x="-0.2" y="1" relative="1" as="geometry">
            <mxPoint as="offset" />
          </mxGeometry>
        </mxCell>
        <mxCell id="12" value="BundleDiscount" style="swimlane;fontStyle=1;align=center;verticalAlign=top;childLayout=stackLayout;horizontal=1;startSize=26;horizontalStack=0;resizeParent=1;resizeParentMax=0;resizeLast=0;collapsible=1;marginBottom=0;" parent="mLEqLvMPQNFOAO5eKtlC-24" vertex="1">
          <mxGeometry x="20" y="270" width="200" height="110" as="geometry" />
        </mxCell>
        <mxCell id="13" value="+ firstItemId: String&#xa;+ secondItemId: String&#xa;+ discount: double" style="text;strokeColor=none;fillColor=none;align=left;verticalAlign=top;spacingLeft=4;spacingRight=4;overflow=hidden;rotatable=0;points=[[0,0.5],[1,0.5]];portConstraint=eastwest;" parent="12" vertex="1">
          <mxGeometry y="26" width="200" height="84" as="geometry" />
        </mxCell>
        <mxCell id="19" value="" style="endArrow=open;endSize=12;dashed=1;html=1;exitX=0;exitY=0.5;exitDx=0;exitDy=0;entryX=1;entryY=0.5;entryDx=0;entryDy=0;" parent="mLEqLvMPQNFOAO5eKtlC-24" source="14" target="13" edge="1">
          <mxGeometry width="160" relative="1" as="geometry" />
        </mxCell>
        <mxCell id="20" value="uses" style="edgeLabel;html=1;align=center;verticalAlign=middle;resizable=0;points=[];" parent="19" vertex="1" connectable="0">
          <mxGeometry x="-0.2" y="1" relative="1" as="geometry">
            <mxPoint as="offset" />
          </mxGeometry>
        </mxCell>
        <mxCell id="mLEqLvMPQNFOAO5eKtlC-25" value="Database" style="swimlane;whiteSpace=wrap;html=1;" vertex="1" parent="1">
          <mxGeometry x="-280" y="590" width="660" height="360" as="geometry" />
        </mxCell>
        <mxCell id="mLEqLvMPQNFOAO5eKtlC-32" value="item" style="swimlane;fontStyle=0;childLayout=stackLayout;horizontal=1;startSize=30;horizontalStack=0;resizeParent=1;resizeParentMax=0;resizeLast=0;collapsible=1;marginBottom=0;whiteSpace=wrap;html=1;" vertex="1" parent="mLEqLvMPQNFOAO5eKtlC-25">
          <mxGeometry x="300" y="90" width="140" height="180" as="geometry" />
        </mxCell>
        <mxCell id="mLEqLvMPQNFOAO5eKtlC-33" value="it_id" style="text;strokeColor=none;fillColor=none;align=left;verticalAlign=middle;spacingLeft=4;spacingRight=4;overflow=hidden;points=[[0,0.5],[1,0.5]];portConstraint=eastwest;rotatable=0;whiteSpace=wrap;html=1;" vertex="1" parent="mLEqLvMPQNFOAO5eKtlC-32">
          <mxGeometry y="30" width="140" height="30" as="geometry" />
        </mxCell>
        <mxCell id="mLEqLvMPQNFOAO5eKtlC-34" value="it_name" style="text;strokeColor=none;fillColor=none;align=left;verticalAlign=middle;spacingLeft=4;spacingRight=4;overflow=hidden;points=[[0,0.5],[1,0.5]];portConstraint=eastwest;rotatable=0;whiteSpace=wrap;html=1;" vertex="1" parent="mLEqLvMPQNFOAO5eKtlC-32">
          <mxGeometry y="60" width="140" height="30" as="geometry" />
        </mxCell>
        <mxCell id="mLEqLvMPQNFOAO5eKtlC-35" value="it_normal_price" style="text;strokeColor=none;fillColor=none;align=left;verticalAlign=middle;spacingLeft=4;spacingRight=4;overflow=hidden;points=[[0,0.5],[1,0.5]];portConstraint=eastwest;rotatable=0;whiteSpace=wrap;html=1;" vertex="1" parent="mLEqLvMPQNFOAO5eKtlC-32">
          <mxGeometry y="90" width="140" height="30" as="geometry" />
        </mxCell>
        <mxCell id="mLEqLvMPQNFOAO5eKtlC-41" value="it_create_date" style="text;strokeColor=none;fillColor=none;align=left;verticalAlign=middle;spacingLeft=4;spacingRight=4;overflow=hidden;points=[[0,0.5],[1,0.5]];portConstraint=eastwest;rotatable=0;whiteSpace=wrap;html=1;" vertex="1" parent="mLEqLvMPQNFOAO5eKtlC-32">
          <mxGeometry y="120" width="140" height="30" as="geometry" />
        </mxCell>
        <mxCell id="mLEqLvMPQNFOAO5eKtlC-42" value="it_update_date" style="text;strokeColor=none;fillColor=none;align=left;verticalAlign=middle;spacingLeft=4;spacingRight=4;overflow=hidden;points=[[0,0.5],[1,0.5]];portConstraint=eastwest;rotatable=0;whiteSpace=wrap;html=1;" vertex="1" parent="mLEqLvMPQNFOAO5eKtlC-32">
          <mxGeometry y="150" width="140" height="30" as="geometry" />
        </mxCell>
        <mxCell id="mLEqLvMPQNFOAO5eKtlC-28" value="item_discounts" style="swimlane;fontStyle=0;childLayout=stackLayout;horizontal=1;startSize=30;horizontalStack=0;resizeParent=1;resizeParentMax=0;resizeLast=0;collapsible=1;marginBottom=0;whiteSpace=wrap;html=1;" vertex="1" parent="mLEqLvMPQNFOAO5eKtlC-25">
          <mxGeometry x="490" y="60" width="140" height="210" as="geometry" />
        </mxCell>
        <mxCell id="mLEqLvMPQNFOAO5eKtlC-30" value="itd_id" style="text;strokeColor=none;fillColor=none;align=left;verticalAlign=middle;spacingLeft=4;spacingRight=4;overflow=hidden;points=[[0,0.5],[1,0.5]];portConstraint=eastwest;rotatable=0;whiteSpace=wrap;html=1;" vertex="1" parent="mLEqLvMPQNFOAO5eKtlC-28">
          <mxGeometry y="30" width="140" height="30" as="geometry" />
        </mxCell>
        <mxCell id="mLEqLvMPQNFOAO5eKtlC-31" value="itd_it_id" style="text;strokeColor=none;fillColor=none;align=left;verticalAlign=middle;spacingLeft=4;spacingRight=4;overflow=hidden;points=[[0,0.5],[1,0.5]];portConstraint=eastwest;rotatable=0;whiteSpace=wrap;html=1;" vertex="1" parent="mLEqLvMPQNFOAO5eKtlC-28">
          <mxGeometry y="60" width="140" height="30" as="geometry" />
        </mxCell>
        <mxCell id="mLEqLvMPQNFOAO5eKtlC-43" value="itd_quantity" style="text;strokeColor=none;fillColor=none;align=left;verticalAlign=middle;spacingLeft=4;spacingRight=4;overflow=hidden;points=[[0,0.5],[1,0.5]];portConstraint=eastwest;rotatable=0;whiteSpace=wrap;html=1;" vertex="1" parent="mLEqLvMPQNFOAO5eKtlC-28">
          <mxGeometry y="90" width="140" height="30" as="geometry" />
        </mxCell>
        <mxCell id="mLEqLvMPQNFOAO5eKtlC-44" value="itd_special_price" style="text;strokeColor=none;fillColor=none;align=left;verticalAlign=middle;spacingLeft=4;spacingRight=4;overflow=hidden;points=[[0,0.5],[1,0.5]];portConstraint=eastwest;rotatable=0;whiteSpace=wrap;html=1;" vertex="1" parent="mLEqLvMPQNFOAO5eKtlC-28">
          <mxGeometry y="120" width="140" height="30" as="geometry" />
        </mxCell>
        <mxCell id="mLEqLvMPQNFOAO5eKtlC-45" value="itd_valid_from" style="text;strokeColor=none;fillColor=none;align=left;verticalAlign=middle;spacingLeft=4;spacingRight=4;overflow=hidden;points=[[0,0.5],[1,0.5]];portConstraint=eastwest;rotatable=0;whiteSpace=wrap;html=1;" vertex="1" parent="mLEqLvMPQNFOAO5eKtlC-28">
          <mxGeometry y="150" width="140" height="30" as="geometry" />
        </mxCell>
        <mxCell id="mLEqLvMPQNFOAO5eKtlC-46" value="itd_valid_to" style="text;strokeColor=none;fillColor=none;align=left;verticalAlign=middle;spacingLeft=4;spacingRight=4;overflow=hidden;points=[[0,0.5],[1,0.5]];portConstraint=eastwest;rotatable=0;whiteSpace=wrap;html=1;" vertex="1" parent="mLEqLvMPQNFOAO5eKtlC-28">
          <mxGeometry y="180" width="140" height="30" as="geometry" />
        </mxCell>
        <mxCell id="mLEqLvMPQNFOAO5eKtlC-51" style="edgeStyle=orthogonalEdgeStyle;rounded=0;orthogonalLoop=1;jettySize=auto;html=1;" edge="1" parent="mLEqLvMPQNFOAO5eKtlC-25" source="mLEqLvMPQNFOAO5eKtlC-31" target="mLEqLvMPQNFOAO5eKtlC-33">
          <mxGeometry relative="1" as="geometry" />
        </mxCell>
        <mxCell id="mLEqLvMPQNFOAO5eKtlC-36" value="bundle_discounts" style="swimlane;fontStyle=0;childLayout=stackLayout;horizontal=1;startSize=30;horizontalStack=0;resizeParent=1;resizeParentMax=0;resizeLast=0;collapsible=1;marginBottom=0;whiteSpace=wrap;html=1;" vertex="1" parent="mLEqLvMPQNFOAO5eKtlC-25">
          <mxGeometry x="70" y="60" width="140" height="210" as="geometry" />
        </mxCell>
        <mxCell id="mLEqLvMPQNFOAO5eKtlC-37" value="bd_id" style="text;strokeColor=none;fillColor=none;align=left;verticalAlign=middle;spacingLeft=4;spacingRight=4;overflow=hidden;points=[[0,0.5],[1,0.5]];portConstraint=eastwest;rotatable=0;whiteSpace=wrap;html=1;" vertex="1" parent="mLEqLvMPQNFOAO5eKtlC-36">
          <mxGeometry y="30" width="140" height="30" as="geometry" />
        </mxCell>
        <mxCell id="mLEqLvMPQNFOAO5eKtlC-38" value="bd_from_it_id" style="text;strokeColor=none;fillColor=none;align=left;verticalAlign=middle;spacingLeft=4;spacingRight=4;overflow=hidden;points=[[0,0.5],[1,0.5]];portConstraint=eastwest;rotatable=0;whiteSpace=wrap;html=1;" vertex="1" parent="mLEqLvMPQNFOAO5eKtlC-36">
          <mxGeometry y="60" width="140" height="30" as="geometry" />
        </mxCell>
        <mxCell id="mLEqLvMPQNFOAO5eKtlC-39" value="bd_to_it_id" style="text;strokeColor=none;fillColor=none;align=left;verticalAlign=middle;spacingLeft=4;spacingRight=4;overflow=hidden;points=[[0,0.5],[1,0.5]];portConstraint=eastwest;rotatable=0;whiteSpace=wrap;html=1;" vertex="1" parent="mLEqLvMPQNFOAO5eKtlC-36">
          <mxGeometry y="90" width="140" height="30" as="geometry" />
        </mxCell>
        <mxCell id="mLEqLvMPQNFOAO5eKtlC-47" value="bd_discount_price" style="text;strokeColor=none;fillColor=none;align=left;verticalAlign=middle;spacingLeft=4;spacingRight=4;overflow=hidden;points=[[0,0.5],[1,0.5]];portConstraint=eastwest;rotatable=0;whiteSpace=wrap;html=1;" vertex="1" parent="mLEqLvMPQNFOAO5eKtlC-36">
          <mxGeometry y="120" width="140" height="30" as="geometry" />
        </mxCell>
        <mxCell id="mLEqLvMPQNFOAO5eKtlC-48" value="bd_valid_from" style="text;strokeColor=none;fillColor=none;align=left;verticalAlign=middle;spacingLeft=4;spacingRight=4;overflow=hidden;points=[[0,0.5],[1,0.5]];portConstraint=eastwest;rotatable=0;whiteSpace=wrap;html=1;" vertex="1" parent="mLEqLvMPQNFOAO5eKtlC-36">
          <mxGeometry y="150" width="140" height="30" as="geometry" />
        </mxCell>
        <mxCell id="mLEqLvMPQNFOAO5eKtlC-49" value="bd_valid_to" style="text;strokeColor=none;fillColor=none;align=left;verticalAlign=middle;spacingLeft=4;spacingRight=4;overflow=hidden;points=[[0,0.5],[1,0.5]];portConstraint=eastwest;rotatable=0;whiteSpace=wrap;html=1;" vertex="1" parent="mLEqLvMPQNFOAO5eKtlC-36">
          <mxGeometry y="180" width="140" height="30" as="geometry" />
        </mxCell>
        <mxCell id="mLEqLvMPQNFOAO5eKtlC-52" style="edgeStyle=orthogonalEdgeStyle;rounded=0;orthogonalLoop=1;jettySize=auto;html=1;" edge="1" parent="mLEqLvMPQNFOAO5eKtlC-25" source="mLEqLvMPQNFOAO5eKtlC-38" target="mLEqLvMPQNFOAO5eKtlC-33">
          <mxGeometry relative="1" as="geometry" />
        </mxCell>
        <mxCell id="mLEqLvMPQNFOAO5eKtlC-53" style="edgeStyle=orthogonalEdgeStyle;rounded=0;orthogonalLoop=1;jettySize=auto;html=1;" edge="1" parent="mLEqLvMPQNFOAO5eKtlC-25" source="mLEqLvMPQNFOAO5eKtlC-39" target="mLEqLvMPQNFOAO5eKtlC-33">
          <mxGeometry relative="1" as="geometry" />
        </mxCell>
      </root>
    </mxGraphModel>
  </diagram>
</mxfile>
